<?xml version="1.0" standalone="no"?>
<!DOCTYPE svg PUBLIC "-//W3C//DTD SVG 20010904//EN"
 "http://www.w3.org/TR/2001/REC-SVG-20010904/DTD/svg10.dtd">
<svg version="1.0" xmlns="http://www.w3.org/2000/svg"
 width="300.000000pt" height="300.000000pt" viewBox="0 0 300.000000 300.000000"
 preserveAspectRatio="xMidYMid meet">
<metadata>
Created by potrace 1.11, written by Peter Selinger 2001-2013
</metadata>
<g transform="translate(0.000000,300.000000) scale(0.100000,-0.100000)"
fill="#000000" stroke="none">
<path d="M1198 2897 l-47 -50 45 -44 c25 -23 49 -43 53 -43 4 0 27 20 51 45
l44 45 -49 48 -50 48 -47 -49z"/>
<path d="M1458 2780 l-36 -37 42 -42 42 -41 43 41 43 41 -38 39 c-21 22 -43
39 -49 38 -5 -1 -26 -18 -47 -39z"/>
<path d="M1738 2701 c-34 -34 -34 -42 -5 -67 43 -37 47 -38 83 -3 l34 33 -32
33 c-18 18 -37 33 -42 32 -6 0 -23 -13 -38 -28z"/>
<path d="M618 2610 c-32 -31 -58 -60 -58 -64 0 -5 29 -37 65 -71 l65 -63 66
65 65 66 -62 63 c-35 35 -68 63 -74 63 -5 -1 -36 -27 -67 -59z"/>
<path d="M2023 2645 c-29 -31 -29 -36 5 -68 l28 -27 29 30 29 30 -29 30 c-16
17 -31 30 -34 29 -3 0 -16 -11 -28 -24z"/>
<path d="M2305 2600 c-17 -19 -17 -21 0 -40 23 -25 37 -25 59 -1 17 18 16 20
-1 40 -22 26 -35 26 -58 1z"/>
<path d="M2595 2580 c-18 -20 -18 -21 0 -34 35 -26 68 9 36 38 -16 15 -19 15
-36 -4z"/>
<path d="M1023 2439 l-60 -58 59 -57 59 -57 55 54 c30 29 54 57 54 62 0 4 -24
32 -54 61 l-53 53 -60 -58z"/>
<path d="M1445 2330 c-41 -42 -46 -50 -33 -62 8 -7 31 -28 51 -47 l37 -35 46
47 46 47 -29 33 c-15 18 -37 41 -49 49 -20 16 -23 15 -69 -32z"/>
<path d="M353 2256 c-28 -24 -66 -55 -84 -68 l-32 -26 69 -84 c38 -46 73 -85
77 -87 10 -4 177 127 177 139 0 7 -87 115 -127 157 -17 19 -23 16 -80 -31z"/>
<path d="M1876 2253 l-35 -37 27 -32 c41 -49 52 -50 94 -6 l37 40 -39 36 c-22
20 -41 36 -44 36 -3 0 -20 -17 -40 -37z"/>
<path d="M2308 2200 l-28 -28 30 -32 29 -31 33 30 33 30 -29 30 c-17 17 -32
31 -35 31 -3 -1 -18 -14 -33 -30z"/>
<path d="M2746 2178 c-20 -18 -20 -19 2 -40 l22 -22 21 21 c22 22 20 37 -9 52
-12 6 -23 3 -36 -11z"/>
<path d="M815 2014 c-93 -73 -90 -70 -72 -89 9 -8 37 -42 63 -75 40 -51 49
-58 63 -48 14 11 112 90 134 108 6 5 -46 76 -117 157 -1 1 -33 -23 -71 -53z"/>
<path d="M1312 1859 l-62 -51 29 -36 c63 -80 80 -94 95 -80 8 7 36 31 64 52
l51 40 -26 30 c-46 56 -82 96 -85 96 -2 -1 -31 -24 -66 -51z"/>
<path d="M1828 1748 l-47 -40 41 -49 c23 -27 44 -49 48 -49 4 0 25 16 46 35
22 19 42 35 47 35 4 0 7 3 7 8 0 10 -80 102 -89 101 -3 0 -27 -18 -53 -41z"/>
<path d="M149 1713 c-47 -38 -87 -72 -89 -76 -3 -12 131 -178 141 -175 13 4
178 132 178 138 1 3 -9 16 -21 30 -22 24 -91 109 -113 137 -8 10 -29 -2 -96
-54z"/>
<path d="M2355 1675 l-40 -34 37 -37 37 -37 35 29 c19 16 35 32 35 37 1 4 -14
23 -31 42 l-33 34 -40 -34z"/>
<path d="M2881 1664 l-22 -28 23 -22 23 -22 27 26 c15 14 27 26 25 26 -1 1
-14 11 -28 24 l-27 23 -21 -27z"/>
<path d="M652 1470 l-72 -59 28 -33 c53 -61 71 -83 85 -102 14 -19 18 -17 90
40 43 33 74 65 71 72 -7 22 -108 142 -119 141 -5 0 -43 -26 -83 -59z"/>
<path d="M1224 1338 c-85 -69 -82 -61 -38 -115 63 -78 61 -77 87 -60 12 9 41
33 65 54 l43 38 -54 62 -54 61 -49 -40z"/>
<path d="M1804 1247 c-7 -7 -28 -25 -48 -40 -20 -15 -36 -32 -36 -36 0 -5 19
-30 41 -55 l41 -46 49 41 c27 22 49 44 49 47 0 4 -20 28 -43 54 -32 36 -45 44
-53 35z"/>
<path d="M2327 1137 l-38 -32 35 -40 35 -40 38 38 38 37 -35 35 -35 34 -38
-32z"/>
<path d="M215 1103 c-33 -26 -66 -53 -73 -60 -7 -7 -18 -13 -24 -13 -17 0 -2
-26 63 -104 39 -48 66 -73 73 -68 34 20 155 118 156 125 0 9 -122 166 -130
166 -3 1 -32 -20 -65 -46z"/>
<path d="M2893 1126 l-28 -24 24 -26 c23 -24 24 -24 47 -8 29 21 29 27 5 58
l-19 25 -29 -25z"/>
<path d="M670 894 c-111 -88 -101 -75 -80 -104 10 -14 37 -46 59 -72 l42 -47
69 56 c39 30 70 58 70 61 0 4 -110 142 -114 142 0 0 -21 -16 -46 -36z"/>
<path d="M1126 733 c-31 -25 -56 -48 -56 -52 0 -8 80 -105 90 -109 4 -1 33 18
64 44 64 51 64 40 -6 121 l-37 42 -55 -46z"/>
<path d="M1608 626 c-21 -18 -38 -37 -38 -42 1 -5 18 -26 39 -47 l37 -38 42
33 c22 18 41 38 41 43 1 12 -66 85 -77 85 -4 -1 -24 -16 -44 -34z"/>
<path d="M2102 556 l-33 -32 29 -27 c34 -33 42 -33 70 -4 28 30 28 32 -5 66
l-28 28 -33 -31z"/>
<path d="M2601 546 l-22 -23 24 -16 c18 -12 27 -13 36 -4 15 15 14 35 -3 52
-11 12 -17 10 -35 -9z"/>
<path d="M646 347 l-40 -34 33 -42 33 -41 41 32 c23 17 43 32 44 33 1 0 -15
20 -35 43 l-37 42 -39 -33z"/>
<path d="M882 241 c-37 -31 -35 -47 7 -85 20 -18 21 -18 56 8 19 15 35 30 35
34 -1 7 -57 72 -62 72 -2 -1 -18 -14 -36 -29z"/>
<path d="M1127 162 l-27 -28 29 -28 29 -28 31 23 c17 12 31 24 31 26 0 11 -46
63 -55 63 -6 0 -23 -13 -38 -28z"/>
<path d="M1387 116 l-28 -22 21 -27 c25 -32 30 -33 58 -8 28 23 27 32 0 58
l-23 21 -28 -22z"/>
<path d="M1642 77 c-22 -23 -22 -24 -4 -40 24 -22 35 -21 57 3 17 19 17 21 0
40 -23 25 -27 25 -53 -3z"/>
<path d="M1905 80 c-18 -20 -18 -21 1 -41 20 -20 20 -20 38 0 17 19 17 21 -1
40 l-20 21 -18 -20z"/>
</g>
</svg>
